<svg width="505" height="200" viewBox="0 0 505 200" fill="none" xmlns="http://www.w3.org/2000/svg">
  <path d="M89.2 0L178.4 51.6V154.8L89.2 200L0 154.8V51.6L89.2 0Z" fill="#2B7B3C"/>
  <path d="M89.2 33.6L148.8 70.8V145.2L89.2 178.8L29.6 145.2V70.8L89.2 33.6Z" fill="#CCCCCC"/>
  <path d="M89.2 67.2L119.2 85.2V121.2L89.2 136.8L59.2 121.2V85.2L89.2 67.2Z" fill="#2B7B3C"/>
  <path d="M267.651 142V57.2H287.251V125.6H323.251V142H267.651ZM366.671 143.2C360.538 143.2 355.004 142.133 350.071 140C345.138 137.867 341.138 134.8 338.071 130.8C335.004 126.8 333.338 122 333.071 116.4H353.471C353.871 120 355.338 122.867 357.871 125C360.471 127.133 363.804 128.2 367.871 128.2C371.804 128.2 374.871 127.267 377.071 125.4C379.338 123.533 380.471 121.2 380.471 118.4C380.471 115.2 379.071 112.8 376.271 111.2C373.471 109.533 369.138 107.8 363.271 106C357.271 104.267 352.338 102.533 348.471 100.8C344.671 99.0667 341.338 96.4667 338.471 93C335.671 89.4667 334.271 84.8 334.271 79C334.271 74.0667 335.604 69.6667 338.271 65.8C341.004 61.9333 344.804 58.9333 349.671 56.8C354.604 54.6667 360.338 53.6 366.871 53.6C376.604 53.6 384.404 55.9333 390.271 60.6C396.204 65.2667 399.404 71.6667 399.871 79.8H378.671C378.404 76.4667 377.004 73.8 374.471 71.8C372.004 69.7333 368.738 68.7 364.671 68.7C361.138 68.7 358.338 69.5333 356.271 71.2C354.271 72.8 353.271 75.0667 353.271 78C353.271 81.4667 354.671 84.1333 357.471 86C360.338 87.8 364.671 89.5333 370.471 91.2C376.338 92.9333 381.204 94.7333 385.071 96.6C389.004 98.4 392.338 101 395.071 104.4C397.871 107.733 399.338 112.2 399.471 117.8C399.471 122.867 398.071 127.4 395.271 131.4C392.538 135.4 388.671 138.533 383.671 140.8C378.738 142.4 373.071 143.2 366.671 143.2ZM449.821 143.2C443.688 143.2 438.155 142.133 433.221 140C428.288 137.867 424.288 134.8 421.221 130.8C418.155 126.8 416.488 122 416.221 116.4H436.621C437.021 120 438.488 122.867 441.021 125C443.621 127.133 446.955 128.2 451.021 128.2C454.955 128.2 458.021 127.267 460.221 125.4C462.488 123.533 463.621 121.2 463.621 118.4C463.621 115.2 462.221 112.8 459.421 111.2C456.621 109.533 452.288 107.8 446.421 106C440.421 104.267 435.488 102.533 431.621 100.8C427.821 99.0667 424.488 96.4667 421.621 93C418.821 89.4667 417.421 84.8 417.421 79C417.421 74.0667 418.755 69.6667 421.421 65.8C424.155 61.9333 427.955 58.9333 432.821 56.8C437.755 54.6667 443.488 53.6 450.021 53.6C459.755 53.6 467.555 55.9333 473.421 60.6C479.355 65.2667 482.555 71.6667 483.021 79.8H461.821C461.555 76.4667 460.155 73.8 457.621 71.8C455.155 69.7333 451.888 68.7 447.821 68.7C444.288 68.7 441.488 69.5333 439.421 71.2C437.421 72.8 436.421 75.0667 436.421 78C436.421 81.4667 437.821 84.1333 440.621 86C443.488 87.8 447.821 89.5333 453.621 91.2C459.488 92.9333 464.355 94.7333 468.221 96.6C472.155 98.4 475.488 101 478.221 104.4C481.021 107.733 482.488 112.2 482.621 117.8C482.621 122.867 481.221 127.4 478.421 131.4C475.688 135.4 471.821 138.533 466.821 140.8C461.888 142.4 456.221 143.2 449.821 143.2Z" fill="black"/>
  <path d="M505 98H220V102H505V98Z" fill="#2B7B3C"/>
</svg>
